<?xml version="1.0" encoding="utf-8"?>
<!-- Generator: Adobe Illustrator 19.2.1, SVG Export Plug-In . SVG Version: 6.00 Build 0)  -->
<svg version="1.1" id="Layer_1" xmlns="http://www.w3.org/2000/svg" xmlns:xlink="http://www.w3.org/1999/xlink" x="0px" y="0px"
	 viewBox="0 0 195 195" style="enable-background:new 0 0 195 195;" xml:space="preserve">
<style type="text/css">
	.st0{fill:#F27171;}
	.st1{fill:#FFFFFF;}
</style>
<circle class="st0" cx="97.7" cy="97.9" r="95.7"/>
<path class="st1" d="M146.2,42.7l-48.4,64.4L49.4,42.5c-1.7-2.1-5.2-1.2-5.2,1.7v107.8c0,1.4,1.2,2.6,2.6,2.6c1.9,0,3.1-1.2,3.1-2.6
	V74.6l45.4,61.2c0.2,0.2,0.5,0.5,0.7,0.7c1.7,1,3.3,0.5,4.1-0.7l45.7-61.6v77.6c0,1.4,1.2,2.6,2.9,2.6c1.4,0,2.6-1.2,2.6-2.6V44.1
	C151.2,41.3,147.9,40.1,146.2,42.7z M49.8,65.4V53l45,60.3v12.1L50,65.6C49.9,65.5,49.9,65.5,49.8,65.4z M100.5,125.8V113l45.2-60
	v12.1L100.5,125.8z"/>
</svg>
